<svg width="244" height="81" viewBox="0 0 244 81" fill="none" xmlns="http://www.w3.org/2000/svg">
<path d="M61.82 64.48H63.82V62.48H61.82V64.48ZM61.82 79V81H63.82V79H61.82ZM3.63 79H1.63V81H3.63V79ZM3.63 67.45L2.25675 65.996L1.63 66.5879V67.45H3.63ZM33.33 39.4L34.7033 40.854L34.7102 40.8475L33.33 39.4ZM39.71 31.7L41.4864 32.6188L41.4927 32.6067L41.4989 32.5944L39.71 31.7ZM38.17 18.17L36.9005 19.7154L36.9304 19.74L36.9612 19.7634L38.17 18.17ZM19.91 17.62L20.745 19.4374L20.7651 19.4281L20.7849 19.4185L19.91 17.62ZM13.09 23.34L12.007 25.0214L13.6096 26.0535L14.7175 24.5025L13.09 23.34ZM0.11 14.98L-1.5499 13.8643L-2.68764 15.5571L-0.972955 16.6614L0.11 14.98ZM12.54 4.52999L13.394 6.33849L13.4042 6.33367L13.4144 6.32873L12.54 4.52999ZM45.65 3.53999L44.8319 5.36501L44.8507 5.37345L44.8697 5.3815L45.65 3.53999ZM55.66 11.46L54.0068 12.5856L54.0206 12.6059L54.0349 12.6258L55.66 11.46ZM56.65 35.22L58.4531 36.0855L58.4531 36.0855L56.65 35.22ZM46.42 47.76L45.0599 46.2937L45.0534 46.2997L45.047 46.3057L46.42 47.76ZM28.71 64.48L27.337 63.0257L23.6782 66.48H28.71V64.48ZM59.82 64.48V79H63.82V64.48H59.82ZM61.82 77H3.63V81H61.82V77ZM5.63 79V67.45H1.63V79H5.63ZM5.00325 68.904L34.7032 40.854L31.9568 37.946L2.25675 65.996L5.00325 68.904ZM34.7102 40.8475C37.915 37.7917 40.2329 35.0423 41.4864 32.6188L37.9336 30.7812C36.9871 32.611 35.0517 34.995 31.9498 37.9525L34.7102 40.8475ZM41.4989 32.5944C42.716 30.1602 43.36 27.6924 43.36 25.21H39.36C39.36 26.9809 38.9041 28.8398 37.9211 30.8056L41.4989 32.5944ZM43.36 25.21C43.36 21.6136 42.085 18.6296 39.3788 16.5766L36.9612 19.7634C38.5084 20.9371 39.36 22.6464 39.36 25.21H43.36ZM39.4395 16.6245C36.8841 14.5255 33.307 13.64 29.04 13.64V17.64C32.8397 17.64 35.3492 18.4412 36.9005 19.7154L39.4395 16.6245ZM29.04 13.64C25.3996 13.64 22.0517 14.354 19.0351 15.8215L20.7849 19.4185C23.195 18.246 25.9337 17.64 29.04 17.64V13.64ZM19.075 15.8026C16.027 17.2031 13.4866 19.3438 11.4625 22.1775L14.7175 24.5025C16.3601 22.2028 18.3664 20.5302 20.745 19.4374L19.075 15.8026ZM14.173 21.6586L1.19295 13.2986L-0.972955 16.6614L12.007 25.0214L14.173 21.6586ZM1.7699 16.0957C4.55867 11.9465 8.41208 8.69107 13.394 6.33849L11.686 2.7215C6.10792 5.35559 1.67467 9.0668 -1.5499 13.8643L1.7699 16.0957ZM13.4144 6.32873C18.3811 3.91433 24.1241 2.68 30.69 2.68V-1.32C23.6159 -1.32 17.2589 0.0123272 11.6656 2.73126L13.4144 6.32873ZM30.69 2.68C36.1905 2.68 40.8874 3.59679 44.8319 5.36501L46.4681 1.71498C41.906 -0.330127 36.6295 -1.32 30.69 -1.32V2.68ZM44.8697 5.3815C48.889 7.08458 51.903 9.49556 54.0068 12.5856L57.3132 10.3344C54.7237 6.5311 51.0644 3.66208 46.4303 1.69849L44.8697 5.3815ZM54.0349 12.6258C56.1838 15.6213 57.29 19.1989 57.29 23.45H61.29C61.29 18.4611 59.9762 14.0454 57.2851 10.2942L54.0349 12.6258ZM57.29 23.45C57.29 27.339 56.4737 30.9656 54.847 34.3545L58.4531 36.0855C60.3464 32.1411 61.29 27.921 61.29 23.45H57.29ZM54.847 34.3545C53.2457 37.6904 50.046 41.6689 45.0599 46.2937L47.7801 49.2263C52.914 44.4645 56.5343 40.0829 58.4531 36.0855L54.847 34.3545ZM45.047 46.3057L27.337 63.0257L30.083 65.9343L47.793 49.2143L45.047 46.3057ZM28.71 66.48H61.82V62.48H28.71V66.48ZM84.908 75.59L85.9769 73.8996L85.9769 73.8996L84.908 75.59ZM73.138 61.95L71.3233 62.7909L71.3296 62.8043L71.336 62.8176L73.138 61.95ZM73.138 19.16L71.3318 18.301L71.3273 18.3106L73.138 19.16ZM84.908 5.41L85.9769 7.10038L85.9769 7.10038L84.908 5.41ZM119.008 5.41L117.939 7.10038L117.939 7.10038L119.008 5.41ZM130.668 19.16L128.853 20.0009L128.86 20.0143L128.866 20.0276L130.668 19.16ZM130.668 61.95L128.862 61.091L128.857 61.1006L130.668 61.95ZM119.008 75.59L117.939 73.8996L117.939 73.8996L119.008 75.59ZM112.958 59.2L111.299 58.0836L111.291 58.0941L111.285 58.1047L112.958 59.2ZM112.958 21.8L111.285 22.8953L111.291 22.9059L111.299 22.9163L112.958 21.8ZM90.958 21.8L89.2985 20.6836L89.2915 20.6941L89.2846 20.7047L90.958 21.8ZM90.958 59.2L89.2846 60.2953L89.2915 60.3059L89.2985 60.3164L90.958 59.2ZM101.958 78.32C95.9243 78.32 90.6177 76.8342 85.9769 73.8996L83.839 77.2804C89.1716 80.6524 95.2316 82.32 101.958 82.32V78.32ZM85.9769 73.8996C81.343 70.9694 77.6571 66.7257 74.94 61.0824L71.336 62.8176C74.3388 69.0543 78.4996 73.904 83.839 77.2804L85.9769 73.8996ZM74.9526 61.1091C72.3146 55.4166 70.958 48.5669 70.958 40.5H66.958C66.958 49.0064 68.388 56.4567 71.3233 62.7909L74.9526 61.1091ZM70.958 40.5C70.958 32.4321 72.315 25.6233 74.9486 20.0094L71.3273 18.3106C68.3876 24.5767 66.958 31.9946 66.958 40.5H70.958ZM74.9441 20.019C77.6633 14.3018 81.3493 10.0267 85.9769 7.10038L83.839 3.71961C78.4933 7.1 74.3327 11.9916 71.3318 18.301L74.9441 20.019ZM85.9769 7.10038C90.6177 4.16577 95.9243 2.68 101.958 2.68V-1.32C95.2316 -1.32 89.1716 0.347557 83.839 3.71961L85.9769 7.10038ZM101.958 2.68C107.992 2.68 113.298 4.16577 117.939 7.10038L120.077 3.71961C114.744 0.347557 108.684 -1.32 101.958 -1.32V2.68ZM117.939 7.10038C122.562 10.0235 126.208 14.2921 128.853 20.0009L132.483 18.3191C129.555 12.0012 125.428 7.10318 120.077 3.71961L117.939 7.10038ZM128.866 20.0276C131.567 25.6366 132.958 32.4387 132.958 40.5H136.958C136.958 31.988 135.489 24.5634 132.47 18.2924L128.866 20.0276ZM132.958 40.5C132.958 48.5603 131.567 55.4034 128.862 61.091L132.474 62.809C135.489 56.4699 136.958 49.013 136.958 40.5H132.958ZM128.857 61.1006C126.214 66.7353 122.568 70.9725 117.939 73.8996L120.077 77.2804C125.421 73.9008 129.549 69.0447 132.479 62.7994L128.857 61.1006ZM117.939 73.8996C113.298 76.8342 107.992 78.32 101.958 78.32V82.32C108.684 82.32 114.744 80.6524 120.077 77.2804L117.939 73.8996ZM101.958 67.25C107.348 67.25 111.634 64.8747 114.631 60.2953L111.285 58.1047C109.002 61.592 105.955 63.25 101.958 63.25V67.25ZM114.617 60.3164C117.663 55.7894 119.028 49.0727 119.028 40.5H115.028C115.028 48.794 113.68 54.5439 111.299 58.0836L114.617 60.3164ZM119.028 40.5C119.028 31.9273 117.663 25.2106 114.617 20.6836L111.299 22.9163C113.68 26.4561 115.028 32.206 115.028 40.5H119.028ZM114.631 20.7047C111.634 16.1253 107.348 13.75 101.958 13.75V17.75C105.955 17.75 109.002 19.408 111.285 22.8953L114.631 20.7047ZM101.958 13.75C96.6318 13.75 92.3603 16.1323 89.2985 20.6836L92.6174 22.9163C94.9823 19.401 98.0441 17.75 101.958 17.75V13.75ZM89.2846 20.7047C86.3248 25.2265 84.998 31.9337 84.998 40.5H88.998C88.998 32.1997 90.3111 26.4401 92.6314 22.8953L89.2846 20.7047ZM84.998 40.5C84.998 49.0663 86.3248 55.7735 89.2846 60.2953L92.6314 58.1047C90.3111 54.5599 88.998 48.8003 88.998 40.5H84.998ZM89.2985 60.3164C92.3603 64.8677 96.6318 67.25 101.958 67.25V63.25C98.0441 63.25 94.9823 61.599 92.6174 58.0836L89.2985 60.3164ZM172.672 1.99999H174.672V-5.24521e-06H172.672V1.99999ZM172.672 79V81H174.672V79H172.672ZM154.852 79H152.852V81H154.852V79ZM154.852 16.3H156.852V14.3H154.852V16.3ZM139.452 16.3H137.452V18.3H139.452V16.3ZM139.452 1.99999V-5.24521e-06H137.452V1.99999H139.452ZM170.672 1.99999V79H174.672V1.99999H170.672ZM172.672 77H154.852V81H172.672V77ZM156.852 79V16.3H152.852V79H156.852ZM154.852 14.3H139.452V18.3H154.852V14.3ZM141.452 16.3V1.99999H137.452V16.3H141.452ZM139.452 3.99999H172.672V-5.24521e-06H139.452V3.99999ZM243.578 64.48H245.578V62.48H243.578V64.48ZM243.578 79V81H245.578V79H243.578ZM185.388 79H183.388V81H185.388V79ZM185.388 67.45L184.015 65.996L183.388 66.5879V67.45H185.388ZM215.088 39.4L216.461 40.854L216.468 40.8475L215.088 39.4ZM221.468 31.7L223.244 32.6188L223.251 32.6067L223.257 32.5944L221.468 31.7ZM219.928 18.17L218.658 19.7154L218.688 19.74L218.719 19.7634L219.928 18.17ZM201.668 17.62L202.503 19.4374L202.523 19.4281L202.543 19.4185L201.668 17.62ZM194.848 23.34L193.765 25.0214L195.367 26.0535L196.475 24.5025L194.848 23.34ZM181.868 14.98L180.208 13.8643L179.07 15.5571L180.785 16.6614L181.868 14.98ZM194.298 4.52999L195.152 6.33849L195.162 6.33367L195.172 6.32873L194.298 4.52999ZM227.408 3.53999L226.59 5.36501L226.609 5.37345L226.628 5.3815L227.408 3.53999ZM237.418 11.46L235.765 12.5856L235.778 12.6059L235.793 12.6258L237.418 11.46ZM238.408 35.22L240.211 36.0855L240.211 36.0855L238.408 35.22ZM228.178 47.76L226.818 46.2937L226.811 46.2997L226.805 46.3057L228.178 47.76ZM210.468 64.48L209.095 63.0257L205.436 66.48H210.468V64.48ZM241.578 64.48V79H245.578V64.48H241.578ZM243.578 77H185.388V81H243.578V77ZM187.388 79V67.45H183.388V79H187.388ZM186.761 68.904L216.461 40.854L213.715 37.946L184.015 65.996L186.761 68.904ZM216.468 40.8475C219.673 37.7917 221.991 35.0423 223.244 32.6188L219.691 30.7812C218.745 32.611 216.809 34.995 213.708 37.9525L216.468 40.8475ZM223.257 32.5944C224.474 30.1602 225.118 27.6924 225.118 25.21H221.118C221.118 26.9809 220.662 28.8398 219.679 30.8056L223.257 32.5944ZM225.118 25.21C225.118 21.6136 223.843 18.6296 221.137 16.5766L218.719 19.7634C220.266 20.9371 221.118 22.6464 221.118 25.21H225.118ZM221.197 16.6245C218.642 14.5255 215.065 13.64 210.798 13.64V17.64C214.598 17.64 217.107 18.4412 218.658 19.7154L221.197 16.6245ZM210.798 13.64C207.157 13.64 203.81 14.354 200.793 15.8215L202.543 19.4185C204.953 18.246 207.692 17.64 210.798 17.64V13.64ZM200.833 15.8026C197.785 17.2031 195.244 19.3438 193.22 22.1775L196.475 24.5025C198.118 22.2028 200.124 20.5302 202.503 19.4374L200.833 15.8026ZM195.931 21.6586L182.951 13.2986L180.785 16.6614L193.765 25.0214L195.931 21.6586ZM183.528 16.0957C186.316 11.9465 190.17 8.69107 195.152 6.33849L193.444 2.7215C187.866 5.35559 183.432 9.0668 180.208 13.8643L183.528 16.0957ZM195.172 6.32873C200.139 3.91433 205.882 2.68 212.448 2.68V-1.32C205.374 -1.32 199.017 0.0123272 193.423 2.73126L195.172 6.32873ZM212.448 2.68C217.948 2.68 222.645 3.59679 226.59 5.36501L228.226 1.71498C223.664 -0.330127 218.387 -1.32 212.448 -1.32V2.68ZM226.628 5.3815C230.647 7.08458 233.661 9.49556 235.765 12.5856L239.071 10.3344C236.482 6.5311 232.822 3.66208 228.188 1.69849L226.628 5.3815ZM235.793 12.6258C237.942 15.6213 239.048 19.1989 239.048 23.45H243.048C243.048 18.4611 241.734 14.0454 239.043 10.2942L235.793 12.6258ZM239.048 23.45C239.048 27.339 238.231 30.9656 236.605 34.3545L240.211 36.0855C242.104 32.1411 243.048 27.921 243.048 23.45H239.048ZM236.605 34.3545C235.004 37.6904 231.804 41.6689 226.818 46.2937L229.538 49.2263C234.672 44.4645 238.292 40.0829 240.211 36.0855L236.605 34.3545ZM226.805 46.3057L209.095 63.0257L211.841 65.9343L229.551 49.2143L226.805 46.3057ZM210.468 66.48H243.578V62.48H210.468V66.48Z" fill="#CFC3B0"/>
</svg>
